{"title":"J Edgar 2011 DVDRip XviD-ZOMBiES","uid":7023216,"size":900655994,"categoryP":"video","categoryS":"movies","magnet":"?xt=urn:btih:2650c4d1b8ab1bf2fbb3f4572988fbada9253261&amp;dn=J+Edgar+2011+DVDRip+XviD-ZOMBiES&amp;tr=udp%3A%2F%2Ftracker.openbittorrent.com%3A80&amp;tr=udp%3A%2F%2Fopen.demonii.com%3A1337&amp;tr=udp%3A%2F%2Ftracker.coppersurfer.tk%3A6969&amp;tr=udp%3A%2F%2Fexodus.desync.com%3A6969","seeders":2,"leechers":1,"uploader":".BONE.","files":1,"time":1328917562,"description":"J Edgar 2011 DVDRip XviD-ZOMBiES\n******************************************************************************************\nRelease Name :\nRating : 7.2/10\nGenre : Biography, Drama\nNFO : Click Me\nScreens : 1 , 2\nStars : Leonardo DiCaprio, Armie Hammer, Naomi Watts, Josh Hamilton\nDirector : Clint Eastwood\nWriters : Dustin Lance Black\nRelease Date : 11 Nov 2011\nMovie Runtime : 2 hrs 17 mins\nRated Under : R\nMovie Plot : As the face of law enforcement in America for almost 50 years, J. Edgar Hoover was feared and admired, reviled and revered. But behind closed doors, he held secrets that would have destroyed his image, his career and his life. &lt;a href=&quot;\nhttp://www.imdb.com/title/tt1616195/&quot; rel=&quot;nofollow&quot; target=&quot;_NEW&quot;&gt;\nhttp://www.imdb.com/title/tt1616195/&lt;/a&gt;\nFormat : AVI\nFormat/Info : Audio Video Interleave\nFile size : 859 MiB\nDuration : 2h 16mn\nOverall bit rate : 880 Kbps\nWriting application : MEncoder SVN-r33823-4.1.2\nWriting library : MPlayer\nVideo\nID : 0\nFormat : xvid\nCodec ID : xvid\nDuration : 2h 16mn\nBit rate : 740 Kbps\nWidth : 640 pixels\nHeight : 272 pixels\nDisplay aspect ratio : 2.35:1\nFrame rate : 23.976 fps\nBits/(Pixel*Frame) : 0.177\nStream size : 722 MiB (84%)\nAudio\nID : 1\nFormat : MPEG Audio\nFormat version : Version 1\nFormat profile : Layer 3\nMode : Joint stereo\nMode extension : MS Stereo\nCodec ID : 55\nCodec ID/Hint : MP3\nDuration : 2h 16mn\nBit rate mode : Constant\nBit rate : 128 Kbps\nChannel(s) : 2 channels\nSampling rate : 44.1 KHz\nBit depth : 16 bits\nStream size : 125 MiB (15%)\nAlignment : Aligned on interleaves\nInterleave, duration : 26 ms (0.63 video frame)\nInterleave, preload duration : 522 ms\nWriting library : LAME3.98.4\nThanks PADDO , just wanted to do 1 cd rip .\n &lt;a href=&quot;\nhttp://www.aedes.us/e/EnvML.jpg&quot; rel=&quot;nofollow&quot; target=&quot;_NEW&quot;&gt;\nhttp://www.aedes.us/e/EnvML.jpg&lt;/a&gt; &lt;a href=&quot;\nhttp://www.aedes.us/e/EnvML.jpg&quot; rel=&quot;nofollow&quot; target=&quot;_NEW&quot;&gt;\nhttp://www.aedes.us/e/EnvML.jpg&lt;/a&gt; &lt;a href=&quot;\nhttp://www.aedes.us/e/EnvML.jpg&quot; rel=&quot;nofollow&quot; target=&quot;_NEW&quot;&gt;\nhttp://www.aedes.us/e/EnvML.jpg&lt;/a&gt; &lt;a href=&quot;\nhttp://www.aedes.us/e/EnvML.jpg&quot; rel=&quot;nofollow&quot; target=&quot;_NEW&quot;&gt;\nhttp://www.aedes.us/e/EnvML.jpg&lt;/a&gt; &lt;a href=&quot;\nhttp://www.aedes.us/e/EnvML.jpg&quot; rel=&quot;nofollow&quot; target=&quot;_NEW&quot;&gt;\nhttp://www.aedes.us/e/EnvML.jpg&lt;/a&gt;","torrent":{"xt":"urn:btih:2650c4d1b8ab1bf2fbb3f4572988fbada9253261","amp;dn":"J+Edgar+2011+DVDRip+XviD-ZOMBiES","amp;tr":["udp%3A%2F%2Ftracker.openbittorrent.com%3A80","udp%3A%2F%2Fopen.demonii.com%3A1337","udp%3A%2F%2Ftracker.coppersurfer.tk%3A6969","udp%3A%2F%2Fexodus.desync.com%3A6969"],"infoHash":"2650c4d1b8ab1bf2fbb3f4572988fbada9253261","infoHashBuffer":{"type":"Buffer","data":[38,80,196,209,184,171,27,242,251,179,244,87,41,136,251,173,169,37,50,97]},"announce":[],"urlList":[]}}